<?xml version="1.0" standalone="no"?>
<!DOCTYPE svg PUBLIC "-//W3C//DTD SVG 20010904//EN"
 "http://www.w3.org/TR/2001/REC-SVG-20010904/DTD/svg10.dtd">
<svg version="1.0" xmlns="http://www.w3.org/2000/svg"
 width="2388.000000pt" height="1885.000000pt" viewBox="0 0 2388.000000 1885.000000"
 preserveAspectRatio="xMidYMid meet">

<g transform="translate(0.000000,1885.000000) scale(0.100000,-0.100000)"
fill="#000000" stroke="none">
<path d="M13430 18841 c-8 -6 -26 -11 -40 -11 -38 -1 -149 -52 -226 -103 -96
-64 -304 -227 -453 -355 -69 -59 -153 -129 -186 -156 -33 -27 -80 -68 -105
-90 -25 -23 -67 -59 -94 -81 -27 -22 -54 -45 -60 -50 -6 -6 -38 -33 -71 -60
-33 -28 -62 -52 -65 -55 -3 -3 -140 -120 -305 -260 -165 -139 -318 -270 -341
-289 -52 -47 -63 -56 -304 -261 -113 -96 -207 -177 -210 -180 -3 -3 -32 -28
-65 -55 -33 -28 -62 -52 -65 -56 -3 -3 -147 -126 -320 -274 -173 -148 -317
-271 -320 -275 -6 -6 -231 -200 -399 -343 -64 -55 -129 -111 -146 -126 -16
-14 -77 -67 -135 -116 -58 -50 -141 -121 -185 -160 -44 -38 -127 -110 -184
-160 -185 -160 -285 -247 -321 -279 -19 -17 -82 -71 -140 -121 -58 -49 -107
-92 -110 -95 -3 -3 -39 -34 -80 -70 -41 -36 -77 -67 -80 -70 -3 -3 -52 -46
-110 -95 -58 -49 -107 -92 -110 -95 -3 -3 -39 -34 -80 -70 -41 -36 -77 -67
-80 -70 -3 -3 -59 -52 -125 -110 -66 -58 -133 -117 -150 -131 -16 -15 -149
-132 -295 -260 -146 -128 -326 -287 -400 -353 -75 -67 -169 -150 -210 -186
-40 -36 -78 -69 -84 -75 -6 -5 -52 -46 -101 -90 -77 -68 -125 -112 -179 -160
-6 -5 -51 -46 -101 -90 -49 -44 -110 -98 -135 -121 -25 -22 -74 -67 -110 -99
-36 -32 -81 -72 -100 -89 -19 -18 -107 -97 -195 -176 -88 -79 -205 -185 -260
-235 -92 -84 -171 -156 -199 -180 -6 -5 -36 -32 -66 -60 -31 -27 -100 -90
-155 -140 -90 -81 -148 -134 -285 -260 -97 -88 -425 -390 -430 -395 -9 -9
-158 -149 -310 -290 -80 -74 -196 -184 -260 -245 -63 -60 -157 -150 -209 -200
-447 -425 -1163 -1131 -1476 -1455 -447 -464 -722 -760 -873 -940 -11 -14 -60
-72 -109 -131 -48 -58 -134 -163 -190 -235 -56 -71 -126 -160 -157 -199 -46
-59 -206 -307 -206 -320 0 -3 -17 -33 -38 -67 -46 -75 -92 -186 -92 -222 0
-14 -7 -47 -16 -73 -39 -111 -62 -220 -79 -368 -13 -105 -13 -148 -4 -225 26
-230 122 -414 269 -521 152 -111 291 -153 555 -169 72 -4 200 -17 285 -30 136
-20 164 -21 230 -10 173 27 309 143 365 310 27 81 26 263 -2 346 -25 73 -57
138 -92 183 l-25 33 53 102 c64 121 81 149 229 376 142 217 346 503 396 556
23 24 219 236 336 364 68 74 143 155 165 180 87 94 173 189 260 285 50 55 113
124 140 155 28 30 68 75 91 100 54 60 248 273 300 330 23 25 137 151 254 280
117 129 231 255 254 280 22 25 64 70 91 100 28 31 91 100 140 155 50 54 117
129 150 165 33 36 101 111 150 165 50 55 113 124 140 155 28 30 68 75 91 100
22 25 88 97 145 160 58 63 213 237 344 385 132 149 242 272 245 275 3 3 23 25
44 50 45 50 119 103 256 182 106 61 318 165 395 193 28 10 55 22 60 26 6 4 91
34 190 67 165 55 474 137 670 177 44 9 100 21 125 27 25 5 68 14 95 19 28 4
86 15 130 24 44 8 118 22 165 31 47 8 105 19 130 24 62 12 208 38 310 57 47 8
121 21 165 29 236 43 623 106 830 134 38 6 76 12 85 15 8 2 51 9 95 15 44 5
125 16 180 24 118 17 301 43 400 56 242 33 365 52 545 86 148 27 153 28 388
78 58 13 404 100 557 141 28 7 93 25 145 39 99 26 151 40 210 56 19 5 87 23
150 40 63 17 140 38 170 46 30 8 73 20 95 26 22 6 60 16 85 23 57 16 115 32
370 100 113 30 219 59 235 64 17 6 68 20 114 32 69 17 85 19 92 8 7 -11 11
-11 21 3 9 12 22 15 41 11 35 -7 43 -26 28 -60 -9 -20 -16 -24 -36 -19 -30 8
-31 1 -4 -61 12 -26 32 -84 44 -128 13 -44 25 -87 28 -95 3 -8 19 -62 37 -120
18 -58 35 -114 40 -125 24 -61 45 -117 105 -280 37 -99 76 -200 87 -225 11
-25 26 -61 34 -80 8 -19 19 -43 24 -52 6 -10 10 -22 10 -27 0 -9 22 -59 86
-199 13 -29 24 -54 24 -57 0 -2 18 -43 41 -92 22 -48 47 -101 54 -118 8 -16
39 -83 69 -149 31 -65 56 -120 56 -121 0 -13 426 -874 498 -1007 43 -79 94
-178 109 -210 12 -27 11 -29 -280 -279 -558 -481 -663 -576 -922 -834 -277
-276 -382 -385 -534 -555 -52 -58 -108 -121 -125 -140 -45 -50 -325 -386 -366
-440 -19 -25 -37 -47 -40 -50 -6 -5 -114 -146 -215 -279 -202 -269 -518 -743
-631 -946 -15 -27 -45 -78 -66 -113 -21 -34 -38 -64 -38 -66 0 -1 -32 -61 -71
-132 -64 -117 -259 -507 -259 -518 0 -2 -15 -37 -34 -78 -214 -465 -354 -896
-446 -1373 -46 -234 -65 -452 -65 -725 0 -287 19 -471 71 -710 22 -100 81
-301 103 -355 5 -11 26 -60 46 -110 129 -313 353 -630 600 -849 264 -234 586
-429 957 -581 35 -14 72 -30 83 -35 65 -28 311 -113 435 -150 261 -77 505
-136 725 -175 50 -9 110 -20 135 -26 127 -26 541 -79 780 -100 310 -26 449
-31 860 -31 407 0 545 5 835 32 147 14 479 57 645 85 52 8 120 19 150 24 65
11 192 34 310 57 47 9 108 20 135 25 28 4 68 13 90 18 22 5 76 17 120 26 72
15 123 26 250 54 134 30 616 149 675 166 44 13 130 37 200 55 19 5 82 23 140
40 58 17 130 38 160 47 308 88 952 312 1165 404 11 4 60 25 110 45 49 20 114
47 145 61 30 13 71 32 90 40 347 155 625 319 900 532 461 357 1108 979 1380
1326 30 39 57 72 60 75 34 32 178 248 228 343 79 149 100 341 50 472 -61 163
-212 360 -316 414 -82 43 -179 51 -265 22 -77 -25 -119 -56 -207 -153 -112
-123 -639 -651 -760 -760 -392 -354 -591 -511 -904 -715 -89 -58 -179 -117
-201 -132 -22 -15 -47 -31 -55 -34 -8 -4 -28 -16 -45 -27 -28 -17 -122 -72
-220 -127 -153 -86 -481 -236 -715 -328 -173 -68 -580 -199 -725 -234 -54 -13
-202 -49 -245 -61 -19 -5 -82 -18 -140 -29 -58 -12 -125 -25 -150 -31 -133
-29 -524 -83 -730 -100 -642 -55 -1142 -32 -1665 76 -71 14 -141 28 -155 31
-14 3 -104 21 -200 40 -96 20 -204 41 -240 48 -36 7 -103 20 -150 30 -47 9
-105 20 -130 25 -25 5 -70 15 -100 24 -30 8 -73 20 -95 26 -22 6 -49 15 -60
19 -11 5 -49 19 -85 32 -173 60 -564 239 -695 317 -393 234 -587 430 -718 722
-23 49 -73 231 -89 320 -18 102 -18 631 0 755 18 117 39 276 47 345 7 59 24
131 50 220 9 30 20 69 25 85 4 17 29 102 55 190 53 181 70 239 90 310 7 28 20
70 28 95 8 25 22 70 31 100 56 196 93 316 116 375 4 11 15 38 23 60 118 306
162 395 390 780 107 182 303 502 382 625 27 41 84 131 128 200 68 105 261 374
320 445 9 11 48 61 88 110 145 182 354 425 362 422 5 -1 41 -63 79 -137 73
-142 129 -246 197 -369 23 -41 41 -75 41 -77 0 -2 17 -32 38 -66 21 -35 51
-85 66 -113 107 -193 289 -475 349 -540 106 -116 228 -196 367 -242 44 -14 85
-18 205 -17 135 1 158 3 229 28 112 38 184 76 326 171 160 107 249 182 477
403 32 30 33 34 27 85 -20 165 -24 183 -73 286 -48 102 -101 236 -101 256 0 5
-33 41 -73 79 -173 169 -287 416 -617 1341 -17 50 -45 125 -61 168 -16 43 -29
80 -29 82 0 11 360 239 521 331 240 136 531 267 709 319 261 77 278 81 459
115 128 24 199 24 411 0 223 -26 305 -43 545 -113 78 -23 264 -92 327 -121 31
-14 59 -26 63 -26 24 0 483 -229 583 -292 20 -13 45 -27 54 -33 32 -18 262
-164 338 -215 41 -28 84 -54 95 -59 21 -9 21 -9 58 79 9 19 27 61 41 93 42 93
78 180 86 207 5 14 29 84 55 155 25 72 57 162 70 200 13 39 56 162 95 275 106
304 107 309 124 392 20 96 20 128 1 219 -19 88 -38 147 -70 217 -14 29 -25 55
-25 57 0 10 -115 194 -153 245 -48 65 -145 164 -202 208 -111 84 -325 194
-433 222 -20 5 -64 16 -97 25 -98 26 -332 54 -456 55 -222 0 -567 -50 -789
-115 -47 -14 -92 -29 -100 -34 -9 -5 -30 -12 -48 -15 -17 -4 -34 -12 -37 -17
-4 -5 -13 -9 -20 -9 -8 0 -65 -24 -127 -54 -62 -29 -135 -64 -163 -76 -27 -12
-83 -38 -123 -56 -41 -19 -75 -34 -77 -34 -2 0 -39 -16 -82 -36 -68 -32 -214
-97 -308 -139 -16 -7 -61 -27 -98 -44 -38 -17 -70 -31 -72 -31 -2 0 -43 -18
-90 -40 -47 -22 -88 -40 -90 -40 -9 0 -197 -90 -385 -184 -196 -98 -291 -148
-464 -243 -43 -24 -80 -43 -82 -43 -2 0 -33 -18 -69 -40 -36 -22 -67 -40 -70
-40 -2 0 -45 -25 -95 -55 -50 -30 -93 -55 -95 -55 -2 0 -38 -21 -80 -46 -41
-25 -79 -43 -84 -40 -5 3 -11 16 -14 28 -3 13 -20 68 -37 123 -30 93 -49 155
-70 230 -5 17 -16 54 -24 83 -46 152 -104 350 -116 397 -5 17 -23 80 -40 140
-62 217 -71 252 -93 335 -8 30 -29 109 -47 175 -55 207 -77 292 -153 595 -40
162 -82 331 -91 375 -10 44 -22 90 -27 103 -5 13 -7 28 -4 32 3 5 70 63 148
128 135 113 299 274 379 372 78 96 118 206 118 325 0 172 -96 321 -261 402
-87 43 -111 50 -209 69 -90 17 -99 16 -316 -22 -44 -8 -96 -14 -115 -14 -37 1
-168 65 -180 90 -5 8 -18 49 -29 90 -27 93 -33 114 -64 215 -13 44 -31 105
-40 135 -8 30 -34 118 -56 195 -23 77 -50 172 -61 210 -11 39 -24 81 -29 95
-4 14 -16 52 -25 85 -10 33 -21 71 -26 85 -4 14 -17 59 -29 100 -12 41 -25 86
-30 100 -4 14 -16 52 -25 85 -9 33 -20 71 -25 85 -5 14 -15 50 -24 80 -9 30
-32 109 -52 175 -19 66 -44 152 -55 190 -11 39 -30 102 -43 140 -14 39 -52
158 -86 265 -112 350 -167 512 -235 690 -98 256 -233 538 -304 634 -164 225
-339 328 -581 342 -43 3 -81 0 -90 -5z m-1064 -2438 c102 -63 86 -41 209 -283
35 -69 68 -143 73 -165 6 -22 17 -67 27 -100 9 -33 23 -82 30 -110 7 -27 21
-77 30 -110 34 -119 30 -106 81 -295 21 -76 29 -106 49 -175 9 -33 23 -82 30
-110 7 -27 22 -81 33 -120 12 -38 30 -104 41 -145 11 -41 52 -190 91 -330 39
-140 78 -277 85 -305 7 -27 20 -76 29 -108 25 -90 32 -82 -109 -122 -33 -10
-94 -28 -135 -40 -41 -13 -111 -33 -155 -45 -44 -12 -100 -28 -125 -37 -25 -8
-67 -21 -95 -28 -27 -8 -72 -21 -100 -28 -27 -8 -106 -31 -175 -51 -163 -47
-228 -66 -265 -77 -78 -24 -287 -82 -345 -95 -36 -8 -94 -22 -130 -30 -36 -9
-81 -19 -100 -24 -19 -5 -66 -16 -105 -25 -38 -9 -101 -22 -140 -30 -38 -7
-108 -21 -155 -30 -219 -43 -325 -63 -435 -81 -112 -18 -253 -42 -325 -54
-218 -38 -383 -65 -502 -85 -51 -9 -118 -20 -148 -25 -30 -5 -98 -17 -150 -26
-52 -9 -131 -23 -175 -31 -62 -12 -175 -17 -497 -20 l-417 -4 -12 22 c-11 21
-4 30 87 118 111 108 540 520 558 536 6 6 74 71 151 145 258 250 519 496 604
571 46 41 127 112 180 159 53 47 159 139 235 205 77 66 214 185 306 265 91 80
226 197 300 260 73 63 157 135 185 160 28 25 65 56 81 70 167 143 240 206 244
210 7 8 316 273 508 437 124 104 176 142 256 182 65 32 117 52 146 54 25 2 47
4 49 5 2 1 46 -24 97 -55z"/>
<path d="M23863 4125 c0 -38 2 -53 4 -32 2 20 2 52 0 70 -2 17 -4 1 -4 -38z"/>
</g>
</svg>
